<svg xmlns="http://www.w3.org/2000/svg" id="canvas" viewBox="244.260 291.600 1230.151 205.867"><path d="M 266.21,335.13 C 265.32 337.41, 264.84 340.42, 263.74 346.96 C 262.65 353.51, 262.19 358.19, 260.71 367.87 C 259.24 377.55, 258.01 383.95, 256.38 395.35 C 254.75 406.76, 253.93 413.61, 252.57 424.89 C 251.21 436.17, 250.51 442.16, 249.59 451.74 C 248.67 461.31, 248.38 465.96, 247.95 472.75 C 247.52 479.55, 246.97 482.15, 247.44 485.71 C 247.91 489.28, 248.70 490.39, 250.31 490.58 C 251.92 490.77, 253.26 489.76, 255.48 486.66 C 257.71 483.55, 258.43 480.55, 261.42 475.04 C 264.40 469.53, 266.30 465.53, 270.41 459.11 C 274.52 452.70, 277.21 448.69, 281.97 442.96 C 286.74 437.22, 289.60 434.07, 294.23 430.44 C 298.86 426.81, 301.43 425.60, 305.12 424.81 C 308.81 424.03, 310.12 424.83, 312.69 426.51 C 315.25 428.19, 316.05 429.53, 317.93 433.22 C 319.82 436.91, 320.64 439.63, 322.13 444.95 C 323.62 450.27, 324.17 454.03, 325.38 459.82 C 326.58 465.61, 326.97 468.84, 328.16 473.92 C 329.36 479.00, 329.75 481.51, 331.37 485.22 C 332.98 488.94, 333.73 490.68, 336.22 492.48 C 338.72 494.28, 340.56 494.84, 343.83 494.23 C 347.10 493.61, 348.89 492.38, 352.55 489.39 C 356.21 486.40, 358.23 484.16, 362.13 479.27 C 366.03 474.38, 368.44 471.08, 372.07 464.95 C 375.70 458.83, 377.52 454.96, 380.27 448.64 C 383.02 442.32, 384.26 438.81, 385.83 433.37 C 387.39 427.93, 388.26 425.19, 388.09 421.45 C 387.91 417.71, 386.99 416.00, 384.97 414.66 C 382.95 413.32, 380.91 413.16, 377.97 414.74 C 375.03 416.32, 373.18 418.36, 370.27 422.55 C 367.36 426.75, 365.66 429.89, 363.41 435.73 C 361.15 441.58, 359.91 445.39, 358.99 451.80 C 358.07 458.21, 357.80 462.14, 358.81 467.78 C 359.82 473.43, 361.05 476.17, 364.02 480.03 C 366.99 483.90, 369.17 485.28, 373.68 487.10 C 378.18 488.91, 381.05 489.36, 386.54 489.10 C 392.04 488.84, 395.35 487.86, 401.15 485.79 C 406.95 483.72, 410.05 481.99, 415.54 478.76 C 421.03 475.53, 423.84 473.59, 428.59 469.66 C 433.33 465.72, 435.58 463.29, 439.26 459.10 C 442.93 454.91, 444.37 452.53, 446.95 448.71 C 449.53 444.90, 450.52 442.99, 452.15 440.04 C 453.78 437.09, 454.30 435.91, 455.11 433.96 C 455.93 432.01, 456.04 431.42, 456.23 430.28 C 456.42 429.13, 456.18 428.60, 456.06 428.25 C 455.95 427.89, 455.71 428.37, 455.64 428.49 C 455.57 428.61, 455.85 428.70, 455.70 428.86 C 455.56 429.02, 455.06 428.86, 454.91 429.29 C 454.75 429.72, 454.61 429.84, 454.92 431.01 C 455.23 432.18, 455.47 433.16, 456.48 435.14 C 457.48 437.11, 458.19 438.39, 459.95 440.88 C 461.70 443.37, 462.81 444.92, 465.25 447.57 C 467.68 450.23, 469.08 451.76, 472.13 454.14 C 475.18 456.51, 476.83 457.68, 480.49 459.46 C 484.16 461.24, 486.27 462.17, 490.46 463.05 C 494.65 463.93, 497.03 464.10, 501.44 463.87 C 505.85 463.65, 508.22 463.27, 512.50 461.91 C 516.78 460.54, 519.09 459.50, 522.86 457.06 C 526.63 454.63, 528.64 453.00, 531.37 449.73 C 534.10 446.46, 535.38 444.35, 536.52 440.71 C 537.65 437.08, 537.94 434.76, 537.05 431.56 C 536.16 428.36, 534.90 426.35, 532.05 424.73 C 529.20 423.11, 526.71 422.83, 522.79 423.47 C 518.86 424.11, 516.41 425.42, 512.44 427.94 C 508.46 430.47, 506.21 432.30, 502.93 436.09 C 499.65 439.88, 497.81 442.26, 496.04 446.91 C 494.27 451.56, 493.58 454.53, 494.06 459.32 C 494.55 464.12, 495.77 466.81, 498.49 470.88 C 501.20 474.95, 503.21 476.83, 507.65 479.66 C 512.08 482.48, 514.95 483.60, 520.68 485.01 C 526.40 486.42, 530.47 486.57, 536.28 486.71 C 542.10 486.85, 545.16 486.23, 549.76 485.70 C 554.35 485.18, 557.39 484.77, 559.24 484.08 C 561.09 483.38, 560.96 482.43, 559.01 482.22 C 557.06 482.01, 554.03 482.68, 549.50 483.03 C 544.97 483.38, 541.98 484.10, 536.34 483.99 C 530.70 483.87, 526.75 483.77, 521.30 482.45 C 515.85 481.13, 513.19 480.01, 509.10 477.38 C 505.01 474.76, 503.27 472.98, 500.85 469.31 C 498.42 465.64, 497.36 463.30, 496.96 459.04 C 496.55 454.77, 497.15 452.16, 498.82 448.00 C 500.49 443.83, 502.22 441.61, 505.31 438.20 C 508.40 434.78, 510.66 433.11, 514.28 430.92 C 517.90 428.73, 520.25 427.78, 523.42 427.24 C 526.58 426.69, 528.16 427.12, 530.11 428.19 C 532.06 429.26, 532.61 430.31, 533.17 432.59 C 533.73 434.87, 533.82 436.62, 532.92 439.61 C 532.02 442.59, 531.06 444.59, 528.69 447.52 C 526.31 450.46, 524.49 452.04, 521.06 454.29 C 517.62 456.54, 515.46 457.53, 511.51 458.78 C 507.55 460.03, 505.34 460.35, 501.28 460.52 C 497.22 460.70, 495.03 460.52, 491.20 459.65 C 487.38 458.78, 485.45 457.90, 482.14 456.18 C 478.84 454.45, 477.34 453.34, 474.68 451.03 C 472.02 448.71, 470.79 447.25, 468.82 444.60 C 466.86 441.95, 466.22 440.23, 464.85 437.78 C 463.47 435.33, 462.90 434.18, 461.96 432.33 C 461.01 430.49, 460.89 429.71, 460.13 428.57 C 459.36 427.44, 458.95 427.02, 458.13 426.65 C 457.31 426.27, 456.55 426.59, 456.02 426.69 C 455.49 426.79, 455.85 427.01, 455.48 427.17 C 455.11 427.33, 454.59 427.05, 454.16 427.49 C 453.72 427.93, 453.78 428.37, 453.30 429.36 C 452.83 430.35, 452.65 430.65, 451.77 432.45 C 450.90 434.25, 450.37 435.40, 448.92 438.34 C 447.46 441.28, 446.81 443.32, 444.49 447.14 C 442.18 450.96, 440.82 453.32, 437.34 457.45 C 433.85 461.59, 431.67 463.98, 427.07 467.83 C 422.47 471.69, 419.69 473.59, 414.34 476.71 C 408.99 479.83, 405.90 481.48, 400.31 483.43 C 394.73 485.39, 391.55 486.25, 386.42 486.49 C 381.28 486.74, 378.72 486.27, 374.65 484.66 C 370.57 483.06, 368.72 481.94, 366.04 478.48 C 363.36 475.01, 362.16 472.62, 361.25 467.36 C 360.34 462.09, 360.52 458.29, 361.48 452.17 C 362.43 446.05, 363.72 442.32, 366.01 436.78 C 368.31 431.24, 370.19 428.26, 372.96 424.47 C 375.73 420.68, 377.74 419.39, 379.88 417.81 C 382.02 416.23, 382.63 415.84, 383.67 416.57 C 384.71 417.31, 385.11 418.27, 385.06 421.50 C 385.00 424.73, 384.78 427.46, 383.40 432.71 C 382.03 437.95, 380.85 441.53, 378.18 447.74 C 375.51 453.94, 373.68 457.78, 370.05 463.74 C 366.43 469.70, 363.94 472.92, 360.04 477.55 C 356.14 482.18, 353.94 484.25, 350.55 486.88 C 347.16 489.51, 345.56 490.13, 343.09 490.71 C 340.63 491.29, 339.99 491.14, 338.22 489.79 C 336.45 488.44, 335.71 487.27, 334.25 483.96 C 332.79 480.65, 332.14 478.20, 330.91 473.26 C 329.67 468.32, 329.28 465.07, 328.08 459.26 C 326.88 453.44, 326.42 449.66, 324.91 444.18 C 323.41 438.70, 322.70 435.86, 320.56 431.85 C 318.41 427.83, 317.38 426.00, 314.19 424.10 C 311.00 422.19, 308.86 421.41, 304.59 422.32 C 300.31 423.24, 297.69 424.82, 292.84 428.68 C 287.99 432.53, 285.21 435.76, 280.34 441.59 C 275.46 447.42, 272.73 451.42, 268.45 457.84 C 264.17 464.25, 262.08 468.23, 258.95 473.66 C 255.81 479.08, 254.49 481.80, 252.77 484.95 C 251.06 488.10, 250.93 489.28, 250.35 489.39 C 249.78 489.50, 250.00 488.81, 249.89 485.50 C 249.77 482.20, 249.55 479.57, 249.78 472.84 C 250.02 466.12, 250.23 461.43, 251.06 451.87 C 251.89 442.31, 252.58 436.32, 253.94 425.05 C 255.30 413.79, 256.16 406.95, 257.85 395.57 C 259.54 384.18, 260.83 377.79, 262.39 368.13 C 263.95 358.48, 264.47 353.81, 265.63 347.29 C 266.78 340.77, 268.04 337.97, 268.16 335.54 C 268.27 333.11, 267.09 332.84, 266.21 335.13" style="stroke: black; fill: black;"/><path d="M 624.72,304.47 C 623.74 305.71, 622.98 308.35, 622.26 311.10 C 621.54 313.84, 621.20 315.56, 621.11 318.18 C 621.02 320.81, 621.23 322.98, 621.81 324.24 C 622.38 325.49, 623.18 325.53, 623.99 324.46 C 624.80 323.39, 625.18 321.38, 625.86 318.89 C 626.53 316.40, 627.11 314.81, 627.37 312.00 C 627.63 309.19, 627.69 306.37, 627.16 304.87 C 626.63 303.36, 625.70 303.22, 624.72 304.47" style="stroke: black; fill: black;"/><path d="M 717.89,385.72 C 716.49 385.12, 714.28 384.96, 710.98 384.95 C 707.68 384.95, 705.52 384.91, 701.38 385.69 C 697.23 386.48, 694.30 387.19, 690.26 388.87 C 686.21 390.55, 684.20 391.61, 681.15 394.08 C 678.10 396.56, 676.54 398.02, 675.02 401.25 C 673.50 404.48, 673.15 406.61, 673.56 410.23 C 673.96 413.84, 674.96 415.69, 677.05 419.32 C 679.14 422.95, 680.74 424.83, 684.01 428.40 C 687.29 431.96, 689.75 433.78, 693.42 437.13 C 697.08 440.48, 699.30 442.19, 702.34 445.16 C 705.37 448.13, 706.80 449.71, 708.60 451.98 C 710.40 454.25, 711.25 454.95, 711.32 456.50 C 711.39 458.05, 710.77 458.29, 708.96 459.72 C 707.15 461.16, 705.78 462.10, 702.29 463.67 C 698.79 465.25, 696.24 466.08, 691.48 467.60 C 686.73 469.12, 683.36 469.84, 678.51 471.27 C 673.66 472.70, 670.91 473.53, 667.24 474.75 C 663.58 475.97, 661.51 476.52, 660.19 477.38 C 658.87 478.24, 659.05 478.96, 660.64 479.04 C 662.22 479.11, 664.35 478.68, 668.11 477.76 C 671.87 476.84, 674.55 475.82, 679.43 474.44 C 684.30 473.06, 687.61 472.33, 692.50 470.88 C 697.38 469.43, 700.00 468.85, 703.84 467.21 C 707.67 465.57, 709.55 464.84, 711.67 462.68 C 713.78 460.53, 714.43 459.04, 714.42 456.44 C 714.42 453.85, 713.59 452.45, 711.64 449.70 C 709.69 446.96, 707.88 445.71, 704.67 442.72 C 701.46 439.73, 699.22 438.07, 695.58 434.76 C 691.94 431.45, 689.55 429.61, 686.45 426.18 C 683.36 422.74, 681.96 420.85, 680.12 417.58 C 678.29 414.30, 677.62 412.75, 677.27 409.80 C 676.92 406.86, 677.15 405.42, 678.39 402.85 C 679.63 400.29, 680.80 399.06, 683.46 396.97 C 686.12 394.88, 687.96 393.87, 691.69 392.39 C 695.41 390.91, 698.18 390.25, 702.08 389.58 C 705.98 388.91, 708.01 389.36, 711.18 389.03 C 714.35 388.70, 716.60 388.60, 717.94 387.94 C 719.28 387.28, 719.28 386.32, 717.89 385.72" style="stroke: black; fill: black;"/><path d="M 1003.15,296.73 C 1002.29 295.97, 1001.45 295.06, 998.53 294.75 C 995.62 294.45, 993.53 294.60, 988.56 295.21 C 983.59 295.82, 980.35 295.95, 973.67 297.80 C 966.99 299.64, 962.87 301.25, 955.17 304.44 C 947.47 307.63, 942.80 309.72, 935.17 313.74 C 927.54 317.76, 923.46 320.04, 917.03 324.54 C 910.60 329.03, 907.38 331.57, 903.02 336.22 C 898.66 340.87, 896.76 343.18, 895.21 347.79 C 893.66 352.41, 893.71 354.83, 895.26 359.28 C 896.81 363.73, 898.72 365.93, 902.96 370.04 C 907.20 374.15, 910.29 375.97, 916.47 379.82 C 922.66 383.67, 926.68 385.52, 933.88 389.30 C 941.08 393.07, 945.35 394.91, 952.47 398.69 C 959.59 402.47, 963.39 404.33, 969.48 408.20 C 975.57 412.06, 978.74 414.09, 982.92 418.03 C 987.09 421.96, 988.78 424.00, 990.34 427.88 C 991.91 431.75, 991.78 433.67, 990.73 437.41 C 989.69 441.14, 988.43 443.02, 985.12 446.55 C 981.81 450.08, 979.41 451.85, 974.19 455.06 C 968.98 458.27, 965.42 460.01, 959.05 462.61 C 952.68 465.20, 948.75 466.42, 942.34 468.04 C 935.94 469.66, 932.57 470.15, 927.02 470.70 C 921.47 471.25, 918.74 471.39, 914.60 470.79 C 910.46 470.19, 908.66 469.27, 906.32 467.71 C 903.97 466.14, 903.36 465.05, 902.87 462.97 C 902.39 460.89, 902.44 459.81, 903.89 457.32 C 905.34 454.83, 906.51 453.26, 910.12 450.51 C 913.74 447.77, 916.33 446.15, 921.96 443.60 C 927.60 441.06, 931.27 439.67, 938.31 437.81 C 945.35 435.95, 949.48 435.34, 957.14 434.30 C 964.80 433.25, 969.06 433.04, 976.60 432.58 C 984.13 432.13, 988.08 431.94, 994.81 432.03 C 1001.54 432.11, 1004.83 432.26, 1010.25 433.00 C 1015.66 433.74, 1018.03 434.23, 1021.90 435.73 C 1025.77 437.23, 1027.33 438.45, 1029.62 440.50 C 1031.90 442.56, 1032.38 443.85, 1033.32 446.02 C 1034.26 448.19, 1034.04 449.43, 1034.30 451.36 C 1034.56 453.29, 1034.52 454.27, 1034.60 455.66 C 1034.68 457.06, 1034.40 457.70, 1034.71 458.33 C 1035.02 458.97, 1035.48 459.27, 1036.16 458.83 C 1036.84 458.40, 1037.61 457.75, 1038.11 456.16 C 1038.61 454.57, 1038.89 453.27, 1038.67 450.88 C 1038.45 448.50, 1038.39 446.83, 1037.02 444.23 C 1035.65 441.63, 1034.65 440.10, 1031.81 437.88 C 1028.97 435.66, 1027.09 434.56, 1022.84 433.13 C 1018.58 431.69, 1016.13 431.34, 1010.53 430.71 C 1004.93 430.08, 1001.63 429.99, 994.82 429.97 C 988.01 429.96, 984.07 430.18, 976.48 430.66 C 968.89 431.13, 964.62 431.34, 956.88 432.35 C 949.14 433.36, 944.96 433.92, 937.77 435.70 C 930.58 437.48, 926.84 438.79, 920.94 441.24 C 915.04 443.70, 912.32 445.13, 908.27 447.98 C 904.23 450.84, 902.47 452.35, 900.71 455.51 C 898.94 458.67, 898.71 460.80, 899.46 463.80 C 900.21 466.80, 901.51 468.55, 904.47 470.50 C 907.42 472.45, 909.69 473.03, 914.25 473.54 C 918.81 474.06, 921.55 473.74, 927.28 473.08 C 933.01 472.41, 936.37 471.89, 942.90 470.22 C 949.42 468.55, 953.40 467.34, 959.91 464.73 C 966.43 462.12, 970.05 460.44, 975.48 457.17 C 980.90 453.89, 983.49 452.18, 987.05 448.36 C 990.62 444.55, 992.19 442.38, 993.30 438.10 C 994.41 433.82, 994.40 431.28, 992.62 426.95 C 990.84 422.62, 988.82 420.52, 984.40 416.44 C 979.98 412.36, 976.73 410.43, 970.52 406.55 C 964.31 402.67, 960.49 400.83, 953.34 397.04 C 946.20 393.24, 941.94 391.38, 934.79 387.57 C 927.65 383.76, 923.67 381.83, 917.63 377.98 C 911.60 374.14, 908.64 372.23, 904.62 368.32 C 900.61 364.42, 899.01 362.42, 897.56 358.46 C 896.12 354.50, 896.00 352.69, 897.39 348.52 C 898.78 344.35, 900.38 342.11, 904.52 337.61 C 908.66 333.12, 911.80 330.51, 918.10 326.06 C 924.40 321.61, 928.45 319.31, 936.02 315.36 C 943.58 311.41, 948.27 309.33, 955.92 306.30 C 963.57 303.26, 967.70 301.75, 974.28 300.19 C 980.87 298.62, 984.04 298.73, 988.85 298.46 C 993.65 298.20, 995.51 298.86, 998.31 298.87 C 1001.10 298.88, 1001.86 298.95, 1002.83 298.52 C 1003.79 298.09, 1004.01 297.48, 1003.15 296.73" style="stroke: black; fill: black;"/><path d="M 1036.24,384.78 C 1036.62 384.13, 1036.52 383.82, 1036.29 383.78 C 1036.06 383.75, 1035.58 384.23, 1035.09 384.59 C 1034.60 384.96, 1034.22 385.12, 1033.84 385.62 C 1033.45 386.11, 1033.06 386.78, 1033.16 387.06 C 1033.27 387.35, 1033.75 387.49, 1034.37 387.03 C 1034.98 386.57, 1035.86 385.43, 1036.24 384.78" style="stroke: black; fill: black;"/><path d="M 1072.94,430.74 C 1072.51 432.17, 1072.68 434.33, 1072.96 437.52 C 1073.23 440.70, 1073.77 442.87, 1074.33 446.67 C 1074.90 450.48, 1074.72 453.35, 1075.78 456.54 C 1076.83 459.72, 1077.75 461.26, 1079.59 462.59 C 1081.43 463.91, 1082.62 464.24, 1084.98 463.16 C 1087.34 462.08, 1088.52 460.44, 1091.38 457.18 C 1094.25 453.92, 1096.00 451.21, 1099.30 446.88 C 1102.59 442.54, 1104.48 439.59, 1107.87 435.51 C 1111.25 431.43, 1113.24 429.19, 1116.21 426.48 C 1119.19 423.77, 1120.78 422.73, 1122.74 421.95 C 1124.70 421.17, 1124.98 421.25, 1126.00 422.57 C 1127.02 423.89, 1127.22 425.52, 1127.85 428.54 C 1128.48 431.57, 1128.72 433.87, 1129.15 437.70 C 1129.58 441.52, 1129.33 444.13, 1130.01 447.66 C 1130.70 451.18, 1130.98 453.05, 1132.56 455.31 C 1134.14 457.57, 1135.34 458.48, 1137.93 458.97 C 1140.52 459.46, 1142.06 459.18, 1145.50 457.75 C 1148.93 456.33, 1150.83 454.63, 1155.09 451.85 C 1159.36 449.07, 1161.95 446.95, 1166.83 443.87 C 1171.72 440.78, 1174.83 438.75, 1179.52 436.43 C 1184.21 434.11, 1186.75 432.96, 1190.28 432.28 C 1193.80 431.60, 1194.98 431.85, 1197.15 433.04 C 1199.32 434.22, 1199.79 435.42, 1201.12 438.21 C 1202.45 440.99, 1202.56 443.33, 1203.81 446.95 C 1205.06 450.57, 1205.56 452.90, 1207.39 456.29 C 1209.22 459.67, 1210.28 461.59, 1212.95 463.88 C 1215.63 466.17, 1217.24 467.02, 1220.76 467.74 C 1224.27 468.45, 1226.49 468.23, 1230.51 467.46 C 1234.53 466.68, 1236.57 465.87, 1240.83 463.85 C 1245.10 461.82, 1247.43 460.33, 1251.82 457.35 C 1256.21 454.37, 1259.00 452.07, 1262.77 448.95 C 1266.54 445.83, 1268.66 444.15, 1270.68 441.74 C 1272.70 439.34, 1273.03 437.84, 1272.85 436.92 C 1272.68 435.99, 1271.43 435.62, 1269.79 437.12 C 1268.15 438.61, 1266.39 440.79, 1264.64 444.38 C 1262.89 447.97, 1261.62 450.90, 1261.03 455.08 C 1260.45 459.26, 1260.41 461.85, 1261.72 465.29 C 1263.03 468.73, 1264.30 470.48, 1267.59 472.29 C 1270.87 474.11, 1273.62 474.57, 1278.15 474.36 C 1282.67 474.16, 1285.68 473.24, 1290.21 471.28 C 1294.74 469.31, 1297.15 467.75, 1300.79 464.55 C 1304.42 461.34, 1306.13 459.37, 1308.39 455.26 C 1310.65 451.16, 1311.58 448.58, 1312.08 444.02 C 1312.57 439.45, 1312.33 436.43, 1310.86 432.45 C 1309.40 428.47, 1307.96 426.67, 1304.76 424.11 C 1301.55 421.56, 1299.03 420.40, 1294.83 419.67 C 1290.63 418.94, 1287.82 419.33, 1283.76 420.46 C 1279.70 421.59, 1277.30 422.84, 1274.54 425.33 C 1271.77 427.82, 1270.47 429.82, 1269.92 432.91 C 1269.38 435.99, 1269.81 438.20, 1271.82 440.76 C 1273.83 443.33, 1275.88 444.41, 1279.96 445.74 C 1284.05 447.06, 1286.79 447.34, 1292.23 447.39 C 1297.68 447.43, 1301.03 446.95, 1307.21 445.97 C 1313.39 444.99, 1316.88 444.09, 1323.14 442.49 C 1329.39 440.88, 1332.76 439.69, 1338.48 437.93 C 1344.21 436.16, 1347.06 435.11, 1351.78 433.67 C 1356.49 432.23, 1358.41 431.46, 1362.05 430.73 C 1365.69 430.01, 1367.23 429.83, 1369.96 430.04 C 1372.69 430.25, 1373.81 430.67, 1375.71 431.77 C 1377.62 432.88, 1378.04 433.54, 1379.50 435.56 C 1380.96 437.57, 1381.62 439.03, 1383.00 441.86 C 1384.39 444.69, 1385.07 446.65, 1386.43 449.72 C 1387.79 452.80, 1388.18 454.57, 1389.82 457.25 C 1391.46 459.93, 1392.31 461.35, 1394.62 463.12 C 1396.92 464.88, 1398.52 465.62, 1401.34 466.07 C 1404.17 466.52, 1405.76 466.15, 1408.75 465.36 C 1411.74 464.58, 1413.18 463.62, 1416.29 462.14 C 1419.40 460.67, 1421.15 459.58, 1424.30 457.98 C 1427.46 456.39, 1429.11 455.37, 1432.07 454.18 C 1435.03 453.00, 1436.50 452.36, 1439.09 452.06 C 1441.68 451.75, 1442.68 451.96, 1445.03 452.67 C 1447.38 453.37, 1448.57 454.25, 1450.83 455.58 C 1453.10 456.91, 1454.25 457.53, 1456.36 459.32 C 1458.47 461.12, 1459.42 462.53, 1461.38 464.55 C 1463.33 466.57, 1464.43 467.77, 1466.11 469.42 C 1467.80 471.07, 1468.73 472.35, 1469.79 472.82 C 1470.85 473.29, 1471.44 473.01, 1471.41 471.78 C 1471.39 470.56, 1470.92 468.84, 1469.67 466.68 C 1468.41 464.53, 1467.18 463.24, 1465.14 461.01 C 1463.11 458.78, 1461.88 457.46, 1459.49 455.54 C 1457.09 453.62, 1455.84 452.85, 1453.19 451.41 C 1450.54 449.96, 1449.15 449.06, 1446.23 448.31 C 1443.30 447.57, 1441.73 447.31, 1438.58 447.68 C 1435.43 448.05, 1433.72 448.88, 1430.47 450.16 C 1427.23 451.44, 1425.58 452.51, 1422.37 454.08 C 1419.15 455.65, 1417.37 456.67, 1414.39 458.00 C 1411.41 459.33, 1409.95 459.97, 1407.45 460.73 C 1404.96 461.49, 1403.94 461.98, 1401.91 461.78 C 1399.89 461.59, 1398.94 461.12, 1397.33 459.74 C 1395.72 458.36, 1395.18 457.27, 1393.86 454.88 C 1392.53 452.50, 1392.04 450.85, 1390.71 447.83 C 1389.37 444.81, 1388.71 442.79, 1387.18 439.78 C 1385.65 436.76, 1384.97 435.08, 1383.05 432.78 C 1381.14 430.48, 1380.17 429.58, 1377.59 428.28 C 1375.01 426.98, 1373.41 426.39, 1370.16 426.27 C 1366.92 426.16, 1365.20 426.72, 1361.36 427.69 C 1357.52 428.66, 1355.68 429.54, 1350.96 431.13 C 1346.24 432.71, 1343.44 433.80, 1337.76 435.60 C 1332.07 437.41, 1328.73 438.60, 1322.55 440.16 C 1316.36 441.72, 1312.88 442.57, 1306.83 443.41 C 1300.78 444.25, 1297.45 444.57, 1292.31 444.37 C 1287.16 444.16, 1284.58 443.59, 1281.09 442.38 C 1277.60 441.16, 1276.36 440.04, 1274.87 438.29 C 1273.38 436.54, 1273.19 435.64, 1273.65 433.64 C 1274.11 431.65, 1274.93 430.23, 1277.16 428.31 C 1279.39 426.38, 1281.37 425.07, 1284.79 424.03 C 1288.21 422.98, 1290.69 422.55, 1294.27 423.10 C 1297.84 423.64, 1299.97 424.66, 1302.67 426.76 C 1305.37 428.85, 1306.52 430.20, 1307.77 433.59 C 1309.02 436.97, 1309.33 439.64, 1308.92 443.68 C 1308.52 447.73, 1307.76 450.09, 1305.73 453.80 C 1303.69 457.51, 1302.12 459.32, 1298.76 462.21 C 1295.39 465.10, 1293.07 466.50, 1288.92 468.25 C 1284.77 469.99, 1281.91 470.74, 1277.99 470.93 C 1274.06 471.12, 1271.82 470.56, 1269.28 469.19 C 1266.75 467.82, 1266.05 466.74, 1265.30 464.08 C 1264.56 461.42, 1264.77 459.40, 1265.54 455.87 C 1266.30 452.34, 1267.68 449.81, 1269.13 446.44 C 1270.58 443.07, 1272.19 441.06, 1272.79 439.03 C 1273.39 436.99, 1273.13 436.29, 1272.14 436.28 C 1271.14 436.26, 1270.12 436.92, 1267.81 438.94 C 1265.50 440.97, 1264.14 443.24, 1260.59 446.41 C 1257.04 449.58, 1254.29 451.89, 1250.07 454.79 C 1245.84 457.68, 1243.50 459.05, 1239.46 460.88 C 1235.42 462.71, 1233.44 463.29, 1229.86 463.91 C 1226.27 464.54, 1224.39 464.59, 1221.52 464.00 C 1218.66 463.40, 1217.65 462.86, 1215.54 460.94 C 1213.43 459.02, 1212.55 457.46, 1210.97 454.39 C 1209.38 451.32, 1208.91 449.19, 1207.60 445.60 C 1206.30 442.02, 1206.22 439.57, 1204.43 436.46 C 1202.65 433.34, 1201.64 431.48, 1198.69 430.04 C 1195.74 428.59, 1193.80 428.48, 1189.70 429.24 C 1185.61 430.00, 1183.11 431.40, 1178.23 433.82 C 1173.34 436.24, 1170.25 438.30, 1165.27 441.34 C 1160.28 444.37, 1157.57 446.43, 1153.30 448.99 C 1149.04 451.54, 1146.91 452.79, 1143.93 454.12 C 1140.96 455.46, 1140.05 455.83, 1138.43 455.68 C 1136.80 455.53, 1136.61 455.13, 1135.81 453.38 C 1135.02 451.63, 1134.88 450.17, 1134.44 446.92 C 1134.00 443.68, 1134.09 441.07, 1133.61 437.17 C 1133.13 433.27, 1133.12 430.79, 1132.04 427.42 C 1130.96 424.05, 1130.27 422.05, 1128.21 420.33 C 1126.15 418.60, 1124.58 418.06, 1121.74 418.81 C 1118.90 419.55, 1117.26 421.11, 1114.01 424.06 C 1110.76 427.00, 1108.97 429.39, 1105.50 433.53 C 1102.02 437.68, 1100.03 440.56, 1096.63 444.78 C 1093.22 449.00, 1091.14 451.53, 1088.47 454.64 C 1085.79 457.74, 1084.61 459.10, 1083.23 460.29 C 1081.85 461.48, 1082.09 461.58, 1081.56 460.58 C 1081.02 459.58, 1081.10 458.21, 1080.55 455.28 C 1080.00 452.36, 1079.47 449.63, 1078.80 445.94 C 1078.13 442.25, 1077.95 439.94, 1077.21 436.83 C 1076.48 433.72, 1075.98 431.61, 1075.13 430.40 C 1074.27 429.18, 1073.38 429.32, 1072.94 430.74" style="stroke: black; fill: black;"/></svg>